{
  "accessors": [
    {
      "bufferView": 2,
      "componentType": 5126,
      "count": 65532,
      "max": [
        0.7691930532455444,
        0.6770209670066833,
        1.3352370262145996
      ],
      "min": [
        0.0,
        0.0010800361633300781,
        0.0
      ],
      "type": "VEC3"
    },
    {
      "bufferView": 2,
      "byteOffset": 786384,
      "componentType": 5126,
      "count": 65532,
      "max": [
        0.9999752640724182,
        0.9999954700469971,
        0.9999707341194153
      ],
      "min": [
        -0.9999982118606567,
        -0.9999309778213501,
        -0.9999474883079529
      ],
      "type": "VEC3"
    },
    {
      "bufferView": 1,
      "componentType": 5126,
      "count": 65532,
      "max": [
        0.9886760115623474,
        0.9984880089759827
      ],
      "min": [
        0.004399999976158142,
        0.0033340000081807375
      ],
      "type": "VEC2"
    },
    {
      "bufferView": 0,
      "componentType": 5125,
      "count": 321453,
      "type": "SCALAR"
    },
    {
      "bufferView": 2,
      "byteOffset": 1572768,
      "componentType": 5126,
      "count": 59580,
      "max": [
        0.7984859943389893,
        0.6918739676475525,
        1.0698519945144653
      ],
      "min": [
        0.0,
        0.0,
        0.002034999430179596
      ],
      "type": "VEC3"
    },
    {
      "bufferView": 2,
      "byteOffset": 2287728,
      "componentType": 5126,
      "count": 59580,
      "max": [
        0.9999991059303284,
        0.9999719858169556,
        1.0
      ],
      "min": [
        -0.9999868869781494,
        -0.999987006187439,
        -0.9999217391014099
      ],
      "type": "VEC3"
    },
    {
      "bufferView": 1,
      "byteOffset": 524256,
      "componentType": 5126,
      "count": 59580,
      "max": [
        0.9988669753074646,
        0.9999520182609558
      ],
      "min": [
        0.0022720000706613064,
        0.0013040000339969993
      ],
      "type": "VEC2"
    },
    {
      "bufferView": 0,
      "byteOffset": 1285812,
      "componentType": 5125,
      "count": 281205,
      "type": "SCALAR"
    }
  ],
  "asset": {
    "extras": {
      "author": "Minneapolis Institute of Art (https://sketchfab.com/artsmia)",
      "license": "CC0-1.0 (http://creativecommons.org/publicdomain/zero/1.0/)",
      "source": "https://sketchfab.com/3d-models/abduction-of-polyxena-1cceff4360764638a3b86baad7eb055b",
      "title": "Abduction of Polyxena"
    },
    "generator": "Sketchfab-12.60.0",
    "version": "2.0"
  },
  "bufferViews": [
    {
      "buffer": 0,
      "byteLength": 2410632,
      "name": "floatBufferViews",
      "target": 34963
    },
    {
      "buffer": 0,
      "byteLength": 1000896,
      "byteOffset": 2410632,
      "byteStride": 8,
      "name": "floatBufferViews",
      "target": 34962
    },
    {
      "buffer": 0,
      "byteLength": 3002688,
      "byteOffset": 3411528,
      "byteStride": 12,
      "name": "floatBufferViews",
      "target": 34962
    }
  ],
  "buffers": [
    {
      "byteLength": 6414216,
      "uri": "scene.bin"
    }
  ],
  "images": [
    {
      "uri": "textures/170421_mia329_002035_501_200kMesh_OBJ_baseColor.jpeg"
    }
  ],
  "materials": [
    {
      "doubleSided": true,
      "name": "170421_mia329_002035_501_200kMesh_OBJ",
      "pbrMetallicRoughness": {
        "baseColorTexture": {
          "index": 0
        },
        "metallicFactor": 0.3797637195,
        "roughnessFactor": 0.4773246951
      }
    }
  ],
  "meshes": [
    {
      "name": "Object_0",
      "primitives": [
        {
          "attributes": {
            "NORMAL": 1,
            "POSITION": 0,
            "TEXCOORD_0": 2
          },
          "indices": 3,
          "material": 0,
          "mode": 4
        }
      ]
    },
    {
      "name": "Object_1",
      "primitives": [
        {
          "attributes": {
            "NORMAL": 5,
            "POSITION": 4,
            "TEXCOORD_0": 6
          },
          "indices": 7,
          "material": 0,
          "mode": 4
        }
      ]
    }
  ],
  "nodes": [
    {
      "children": [
        1
      ],
      "matrix": [
        0.9944864511489868,
        0.10486501455307007,
        2.3284710726894102e-17,
        0.0,
        0.0,
        2.220446049250313e-16,
        -1.0,
        0.0,
        -0.10486501455307007,
        0.9944864511489868,
        2.2082035114867323e-16,
        0.0,
        0.0532287172973156,
        0.18377403914928436,
        4.080603391838008e-17,
        1.0
      ],
      "name": "Sketchfab_model"
    },
    {
      "children": [
        2
      ],
      "matrix": [
        1.0,
        0.0,
        0.0,
        0.0,
        0.0,
        1.0,
        0.0,
        0.0,
        0.0,
        0.0,
        1.0,
        0.0,
        -2.115324020385742,
        -1.3954399824142456,
        -0.03343699872493744,
        1.0
      ],
      "name": "170421_mia329_002035_501_200kMesh_OBJ.obj.cleaner.materialmerger.gles"
    },
    {
      "children": [
        3,
        4
      ],
      "name": "Object_2"
    },
    {
      "mesh": 0,
      "name": "Object_3"
    },
    {
      "mesh": 1,
      "name": "Object_4"
    }
  ],
  "samplers": [
    {
      "magFilter": 9729,
      "minFilter": 9987,
      "wrapS": 10497,
      "wrapT": 10497
    }
  ],
  "scene": 0,
  "scenes": [
    {
      "name": "Sketchfab_Scene",
      "nodes": [
        0
      ]
    }
  ],
  "textures": [
    {
      "sampler": 0,
      "source": 0
    }
  ]
}
